<?xml version="1.0" encoding="UTF-8" standalone="no"?>
<!-- Created with Inkscape (http://www.inkscape.org/) -->

<svg
   width="78.710831mm"
   height="130mm"
   viewBox="0 0 78.710832 130"
   version="1.1"
   id="svg1"
   inkscape:version="1.3 (0e150ed6c4, 2023-07-21)"
   sodipodi:docname="logo-favicon.svg"
   xmlns:inkscape="http://www.inkscape.org/namespaces/inkscape"
   xmlns:sodipodi="http://sodipodi.sourceforge.net/DTD/sodipodi-0.dtd"
   xmlns="http://www.w3.org/2000/svg"
   xmlns:svg="http://www.w3.org/2000/svg">
  <sodipodi:namedview
     id="namedview1"
     pagecolor="#ffffff"
     bordercolor="#666666"
     borderopacity="1.0"
     inkscape:showpageshadow="2"
     inkscape:pageopacity="0.0"
     inkscape:pagecheckerboard="0"
     inkscape:deskcolor="#d1d1d1"
     inkscape:document-units="mm"
     inkscape:zoom="0.38351221"
     inkscape:cx="-516.28083"
     inkscape:cy="734.00532"
     inkscape:window-width="1858"
     inkscape:window-height="1057"
     inkscape:window-x="54"
     inkscape:window-y="-8"
     inkscape:window-maximized="1"
     inkscape:current-layer="layer1" />
  <defs
     id="defs1" />
  <g
     inkscape:label="Capa 1"
     inkscape:groupmode="layer"
     id="layer1"
     transform="translate(-7.9473279,-79.337904)">
    <g
       id="g1"
       transform="matrix(3.1022509,0,0,3.1022509,-16.707276,-166.78819)">
      <path
         fill="#eb3f57"
         opacity="1"
         stroke="none"
         d="m 32.086282,92.153541 c 0.33797,-5.47443 -3.793255,-10.376069 -9.564653,-11.396001 -6.387981,-1.128897 -13.57276,3.399767 -13.396632,10.988072 0.03555,1.531779 0.685681,3.09399 1.265113,4.557998 0.872469,2.20439 1.900034,4.34999 2.921669,6.49197 1.005155,2.10744 0.318786,4.31934 0.466659,6.47745 0.0094,0.13751 -0.511487,0.31136 -0.926841,0.54911 -0.03802,-0.5456 -0.112588,-0.85291 -0.07155,-1.14392 0.448495,-3.18039 -0.701778,-5.94638 -2.076053,-8.711639 -0.972717,-1.957228 -1.952469,-3.985254 -2.43894,-6.094708 -1.07923,-4.679845 0.633481,-8.960832 4.490217,-11.978381 2.266871,-1.773616 4.951783,-2.599735 7.716486,-2.553769 4.664281,0.07756 8.549655,1.910342 11.106465,6.059974 2.2895,3.71578 2.22103,7.466349 0.38085,11.313853 -1.06146,2.219341 -2.11453,4.44677 -3.045414,6.72209 -0.297174,0.72641 -0.13068,1.63005 -0.289237,2.43021 -0.09746,0.49179 -0.408895,0.9412 -0.624253,1.40963 -0.225483,-0.43889 -0.579016,-0.85744 -0.652613,-1.32048 -0.227306,-1.43022 0.302943,-2.69821 0.893913,-3.9916 1.322168,-2.893695 2.524504,-5.842392 3.753334,-8.778034 0.1126,-0.268983 0.0648,-0.605115 0.0915,-1.031825 z"
         id="path5"
         style="stroke-width:0.264583" />
      <path
         fill="#eb3f57"
         opacity="1"
         stroke="none"
         d="m 21.238585,99.620244 c -1.22e-4,1.937506 0.03607,3.744806 -0.0312,5.548246 -0.01336,0.35787 -0.423524,0.70093 -0.650711,1.05081 -0.213646,-0.36355 -0.605986,-0.72389 -0.612574,-1.09116 -0.05135,-2.86216 -0.05461,-5.726148 -0.0019,-8.588254 0.0084,-0.457208 0.293605,-0.967592 0.58769,-1.347438 0.427714,-0.552448 0.931394,-1.072682 1.488366,-1.493161 1.353674,-1.02199 1.9221,-2.331421 1.586902,-3.986826 -0.09907,-0.489265 -0.327176,-0.971566 -0.58319,-1.405728 -0.468516,-0.79456 -0.801888,-1.587889 -0.104685,-2.388098 0.62778,-0.720516 2.273361,-0.869765 2.724552,-0.193884 0.53362,0.799354 0.854263,1.776175 -0.08473,2.530078 -0.859486,0.690057 -0.660726,1.592546 -0.587619,2.419369 0.106434,1.203714 -0.205317,2.14349 -1.198046,2.841807 -0.03558,0.02503 -0.06026,0.06558 -0.09589,0.09053 -2.061779,1.443289 -2.888279,3.397911 -2.437003,6.013706 z"
         id="path15"
         style="stroke-width:0.264583" />
      <path
         fill="#eb3f57"
         opacity="1"
         stroke="none"
         d="m 18.857327,105.69934 c -5.29e-4,1.09965 0.05485,2.0728 -0.03211,3.03306 -0.0295,0.32579 -0.41801,0.61907 -0.642461,0.92721 -0.21585,-0.31681 -0.612426,-0.62996 -0.618932,-0.95101 -0.05166,-2.55122 -0.07767,-5.10531 -0.0048,-7.65549 0.02771,-0.97029 -0.234328,-1.668678 -0.974034,-2.275579 -0.575522,-0.472176 -1.09211,-1.024113 -1.590032,-1.580732 -0.505082,-0.56464 -0.984793,-0.905793 -1.854097,-0.795486 -1.031338,0.130836 -1.970085,-0.908407 -1.926212,-1.864849 0.03419,-0.745289 1.159608,-1.737985 1.96156,-1.730233 0.938914,0.0091 1.736074,1.002967 1.71028,2.064078 -0.007,0.289227 0.06118,0.665713 0.245015,0.860291 1.206775,1.277313 3.022409,2.318527 3.543207,3.817596 0.628568,1.809304 0.170423,3.996144 0.182652,6.151144 z"
         id="path16"
         style="stroke-width:0.264583" />
      <path
         fill="#eb3f57"
         opacity="1"
         stroke="none"
         d="m 22.297143,102.53219 c -0.404156,-2.41999 0.383585,-4.169693 2.229641,-5.589995 0.96674,-0.743778 1.914665,-1.547968 1.819741,-3.119215 -0.05659,-0.936731 1.04962,-1.38181 1.921483,-1.302051 1.027557,0.09398 1.565054,0.780944 1.452844,1.927063 -0.10853,1.108491 -0.747946,1.548749 -1.737536,1.734471 -0.409355,0.07682 -0.855188,0.181528 -1.187177,0.413022 -2.590509,1.806327 -3.752548,4.225155 -3.198696,7.421805 0.148214,0.85545 0.08071,1.76406 -0.0041,2.63699 -0.03851,0.39647 -0.360598,0.76541 -0.554048,1.14683 -0.247015,-0.39088 -0.678804,-0.76891 -0.707027,-1.17499 -0.09143,-1.31539 -0.03476,-2.64107 -0.03514,-4.09393 z"
         id="path17"
         style="stroke-width:0.264583" />
      <path
         fill="#eb3f57"
         opacity="1"
         stroke="none"
         d="m 16.843128,92.442194 c -0.695735,-0.690616 -1.275609,-1.362869 -1.94709,-1.925868 -0.797941,-0.669038 -1.231119,-1.41284 -1.095142,-2.494105 0.03618,-0.2877 -0.220903,-0.671656 -0.443942,-0.921674 -0.723275,-0.81081 -0.820745,-1.889767 -0.175802,-2.579258 0.58425,-0.6246 2.03536,-0.722316 2.6255,-0.176808 0.609301,0.563218 0.557577,1.966968 -0.142772,2.711455 -0.774875,0.82369 -0.778417,1.600523 0.03211,2.38674 0.252468,0.244883 0.462544,0.551291 0.751157,0.738254 2.338475,1.514985 2.773452,3.757872 2.384753,6.284735 -0.05637,0.366443 -0.44895,0.681159 -0.685948,1.019818 -0.2037,-0.327983 -0.547127,-0.641361 -0.583245,-0.986867 -0.08645,-0.827064 0.04427,-1.678022 -0.05518,-2.502133 -0.0618,-0.512095 -0.383852,-0.992775 -0.664398,-1.554289 z"
         id="path18"
         style="stroke-width:0.264583" />
      <path
         fill="#eb3f57"
         opacity="1"
         stroke="none"
         d="m 16.314451,113.18869 c -1.20227,0.21426 -2.300608,0.37355 -3.398941,0.53285 -0.08988,-0.16467 -0.179766,-0.32936 -0.269647,-0.49403 0.361918,-0.2875 0.68875,-0.75207 1.091805,-0.83194 1.773669,-0.35139 3.571275,-0.58007 5.356569,-0.87518 2.419551,-0.39994 4.833395,-0.83494 7.25505,-1.2213 0.635365,-0.10134 1.290529,-0.0786 1.936602,-0.1128 0.06949,0.1319 0.138985,0.26382 0.208478,0.39573 -0.334761,0.23407 -0.640609,0.59784 -1.00924,0.68001 -1.673537,0.37307 -3.35925,0.70013 -5.051086,0.98032 -1.999583,0.33115 -4.009956,0.59712 -6.11959,0.94634 z"
         id="path19"
         style="stroke-width:0.264583" />
      <path
         fill="#eb3f57"
         opacity="1"
         stroke="none"
         d="m 15.127128,117.07721 c -0.793965,0.10016 -1.471221,0.19865 -2.166284,0.29972 -0.446524,-0.84639 -0.006,-1.2209 0.65564,-1.33055 3.907028,-0.6474 7.820324,-1.25703 11.731781,-1.87765 0.723257,-0.11475 1.445543,-0.27422 2.172861,-0.30512 0.276598,-0.0117 0.566103,0.28045 0.849726,0.4341 -0.220962,0.21982 -0.414044,0.58918 -0.667192,0.63638 -2.577727,0.48054 -5.164918,0.91051 -7.750135,1.35068 -1.569281,0.26718 -3.139753,0.5274 -4.826397,0.79244 z"
         id="path20"
         style="stroke-width:0.264583" />
      <path
         fill="#eb3f57"
         opacity="1"
         stroke="none"
         d="m 21.751003,121.17938 c -2.483834,0.24099 -3.472944,-0.17986 -3.939693,-1.6614 -0.121407,-0.38534 -0.01828,-0.84142 0.157541,-1.30411 1.093258,0.65333 1.197387,2.33522 2.908599,1.9929 1.62569,-0.32521 1.09406,-2.09127 2.031473,-2.84421 1.135695,1.12483 0.699786,2.55723 -1.15792,3.81682 z"
         id="path21"
         style="stroke-width:0.264583" />
    </g>
  </g>
</svg>
