<?xml version="1.0" encoding="UTF-8" standalone="no"?>
<!-- Created with Inkscape (http://www.inkscape.org/) -->

<svg
   width="202.6633mm"
   height="41.905056mm"
   viewBox="0 0 202.6633 41.905056"
   version="1.1"
   id="svg1"
   inkscape:version="1.3 (0e150ed6c4, 2023-07-21)"
   sodipodi:docname="dibujo.svg"
   xmlns:inkscape="http://www.inkscape.org/namespaces/inkscape"
   xmlns:sodipodi="http://sodipodi.sourceforge.net/DTD/sodipodi-0.dtd"
   xmlns="http://www.w3.org/2000/svg"
   xmlns:svg="http://www.w3.org/2000/svg">
  <sodipodi:namedview
     id="namedview1"
     pagecolor="#ffffff"
     bordercolor="#666666"
     borderopacity="1.0"
     inkscape:showpageshadow="2"
     inkscape:pageopacity="0.0"
     inkscape:pagecheckerboard="0"
     inkscape:deskcolor="#d1d1d1"
     inkscape:document-units="mm"
     inkscape:zoom="0.76702441"
     inkscape:cx="366.35079"
     inkscape:cy="261.39976"
     inkscape:window-width="1858"
     inkscape:window-height="1057"
     inkscape:window-x="54"
     inkscape:window-y="-8"
     inkscape:window-maximized="1"
     inkscape:current-layer="layer1" />
  <defs
     id="defs1" />
  <g
     inkscape:label="Capa 1"
     inkscape:groupmode="layer"
     id="layer1"
     transform="translate(-7.9473275,-79.337907)">
    <g
       id="g1">
      <path
         fill="#eb3f57"
         opacity="1"
         stroke="none"
         d="m 49.549092,100.4104 c 0,-2.579009 0,-5.025823 0,-7.67264 0.67489,0 1.57635,0 2.47781,0 2.7744,8e-6 5.54884,-0.0081 8.3232,0.0027 2.08658,0.0081 3.20863,1.131358 3.21918,3.214597 0.0105,2.069746 0.0223,4.139833 -0.004,6.209283 -0.0219,1.7216 -1.10351,2.96513 -2.74599,2.99008 -3.69373,0.0561 -7.38889,0.0176 -11.27018,0.0176 0,-1.58424 0,-3.10683 0,-4.76161 m 6.21965,2.64611 c 0.96908,-2.6e-4 1.94302,0.0599 2.90592,-0.0174 1.05615,-0.0848 1.79095,-0.53154 1.73736,-1.8052 -0.0648,-1.538989 -0.0639,-3.084818 5.3e-4,-4.623822 0.0477,-1.13764 -0.60453,-1.674921 -1.5351,-1.720445 -2.00801,-0.09824 -4.02415,-0.03021 -6.07148,-0.03021 0,2.790714 0,5.448307 0,8.197057 0.95457,0 1.82802,0 2.96268,0 z"
         id="path2"
         style="stroke-width:0.264583" />
      <path
         fill="#eb3f57"
         opacity="1"
         stroke="none"
         d="m 191.89463,95.648129 c 1.71083,0 3.28946,0 5.02721,0 0,2.367814 -2e-5,4.643401 -2e-5,6.918981 -1e-5,1.41029 0.009,2.82065 -0.003,4.23085 -0.011,1.32009 -0.90857,2.30916 -2.24834,2.32993 -2.81991,0.0437 -5.64173,0.0445 -8.46047,-0.0277 -0.33192,-0.008 -0.94193,-0.61277 -0.9147,-0.89116 0.0635,-0.64987 0.0844,-1.52145 1.24585,-1.38305 1.80942,0.2156 3.63032,0.37956 5.45072,0.44609 1.91763,0.0701 2.16408,-0.28257 1.92021,-2.09891 -2.10497,0 -4.18905,-0.033 -6.27138,0.0125 -1.23593,0.027 -2.1764,-0.49497 -2.23175,-1.6798 -0.0993,-2.12747 0.01,-4.272635 0.16491,-6.400711 0.0784,-1.074983 0.89643,-1.486326 1.95748,-1.464196 1.40968,0.0294 2.82043,0.0072 4.36296,0.0072 m -0.90034,1.85221 c -0.26345,8e-6 -0.5269,-0.0011 -0.79036,2.04e-4 -1.72583,0.0081 -2.00914,0.299593 -2.01294,2.076254 -0.002,0.790359 -0.0128,1.581029 0.005,2.370989 0.0185,0.8142 0.45455,1.32958 1.26259,1.35551 1.47817,0.0474 2.95894,0.0135 4.47519,0.0135 0,-1.9955 0,-3.855762 0,-5.816456 -0.94476,0 -1.81463,0 -2.93955,0 z"
         id="path3"
         style="stroke-width:0.264583" />
      <path
         fill="#eb3f57"
         opacity="1"
         stroke="none"
         d="m 68.804912,105.1694 c -0.87371,0.003 -1.6226,0.003 -2.47918,0.003 0,-4.1074 0,-8.177813 0,-12.341738 0.94498,0 1.92874,0 3.01146,0 0,1.576033 0,3.14783 0,4.82682 2.57665,0 5.06046,0 7.69017,0 0,-1.564682 0,-3.168718 0,-4.8446 1.09464,0 2.04876,0 3.10827,0 0,4.036801 0,8.108318 0,12.270618 -0.95394,0 -1.9375,0 -3.02041,0 0,-1.67371 0,-3.33386 0,-5.097412 -2.57744,0 -5.06113,0 -7.72226,0 0,1.365032 0.0302,2.758732 -0.0212,4.149422 -0.0129,0.34875 -0.28765,0.68786 -0.56688,1.03414 z"
         id="path4"
         style="stroke-width:0.264583" />
      <path
         fill="#eb3f57"
         opacity="1"
         stroke="none"
         d="m 32.086282,92.153541 c 0.33797,-5.47443 -3.793255,-10.376069 -9.564653,-11.396001 -6.387981,-1.128897 -13.57276,3.399767 -13.396632,10.988072 0.03555,1.531779 0.685681,3.09399 1.265113,4.557998 0.872469,2.20439 1.900034,4.34999 2.921669,6.49197 1.005155,2.10744 0.318786,4.31934 0.466659,6.47745 0.0094,0.13751 -0.511487,0.31136 -0.926841,0.54911 -0.03802,-0.5456 -0.112588,-0.85291 -0.07155,-1.14392 0.448495,-3.18039 -0.701778,-5.94638 -2.076053,-8.711639 -0.972717,-1.957228 -1.952469,-3.985254 -2.43894,-6.094708 -1.07923,-4.679845 0.633481,-8.960832 4.490217,-11.978381 2.266871,-1.773616 4.951783,-2.599735 7.716486,-2.553769 4.664281,0.07756 8.549655,1.910342 11.106465,6.059974 2.2895,3.71578 2.22103,7.466349 0.38085,11.313853 -1.06146,2.219341 -2.11453,4.44677 -3.045414,6.72209 -0.297174,0.72641 -0.13068,1.63005 -0.289237,2.43021 -0.09746,0.49179 -0.408895,0.9412 -0.624253,1.40963 -0.225483,-0.43889 -0.579016,-0.85744 -0.652613,-1.32048 -0.227306,-1.43022 0.302943,-2.69821 0.893913,-3.9916 1.322168,-2.893695 2.524504,-5.842392 3.753334,-8.778034 0.1126,-0.268983 0.0648,-0.605115 0.0915,-1.031825 z"
         id="path5"
         style="stroke-width:0.264583" />
      <path
         fill="#eb3e56"
         opacity="1"
         stroke="none"
         d="m 201.94921,104.6395 c -1.29289,-3.01179 -2.56537,-5.923609 -3.83728,-8.83409 0.14093,-0.0748 0.20818,-0.140745 0.27741,-0.142877 3.00321,-0.09205 2.99432,-0.08772 4.17865,2.818812 0.53629,1.316175 1.116,2.614655 1.71747,4.017845 0.93898,-2.26323 1.87046,-4.508361 2.821,-6.799409 1.04672,0 2.13575,0 3.50416,0 -1.11003,2.446983 -2.09806,4.775529 -3.21594,7.039959 -0.83974,1.701 -1.78393,3.35917 -2.79953,4.96165 -0.72543,1.14462 -1.84791,1.7878 -3.26956,1.70156 -1.44734,-0.0878 -2.89292,-0.20472 -4.37869,-0.31174 0.26556,-0.94632 0.43796,-1.56072 0.65103,-2.32003 1.85597,0.0307 4.1768,1.38348 5.39371,-1.3425 -0.3499,-0.23595 -0.68596,-0.46258 -1.04243,-0.78918 z"
         id="path6"
         style="stroke-width:0.264583" />
      <path
         fill="#eb3f57"
         opacity="1"
         stroke="none"
         d="m 126.27807,99.352343 c 0,-2.678745 0,-5.225198 0,-7.85414 0.98244,0 1.8768,0 2.90253,0 0,1.461717 0,2.894978 0,4.150029 2.21725,0 4.30314,-0.0083 6.38891,0.0028 1.47601,0.0079 2.26823,0.611333 2.32052,2.04655 0.0892,2.449618 0.0246,4.904858 0.0246,7.415638 -0.99209,0 -1.85645,0 -2.90515,0 0,-1.96585 0.004,-3.92895 -0.001,-5.892033 -0.004,-1.56682 -0.15995,-1.746284 -1.76307,-1.71065 -1.2983,0.02885 -3.01209,-0.313611 -3.76592,0.367321 -0.65869,0.594998 -0.2553,2.386722 -0.28528,3.650592 -0.0271,1.14271 -0.006,2.28657 -0.006,3.53723 -0.93549,0 -1.8302,0 -2.91021,0 0,-1.83069 0,-3.70589 0,-5.713363 z"
         id="path7"
         style="stroke-width:0.264583" />
      <path
         fill="#eb3f57"
         opacity="1"
         stroke="none"
         d="m 101.7928,95.933252 c 1.65103,-0.141899 3.21481,-0.229161 4.77977,-0.27931 0.96806,-0.03102 1.93821,-0.02035 2.90694,-0.0024 1.77985,0.03305 2.46398,0.69306 2.50596,2.435137 0.0255,1.055669 0.005,2.112451 0.005,3.310691 -2.6955,0 -5.35665,0 -7.98299,0 -0.38734,1.69734 -0.23829,1.90655 1.31347,1.92035 1.62966,0.0145 3.26233,0.0613 4.88835,-0.017 1.08797,-0.0524 1.7557,0.31017 2.05365,1.55793 -0.52392,0.10549 -1.04195,0.29412 -1.56214,0.30034 -2.59848,0.031 -5.19757,0.0226 -7.79636,0.0108 -1.45703,-0.007 -2.01366,-0.5858 -2.0235,-2.08681 -0.0113,-1.71781 -0.0775,-3.44068 0.0353,-5.151138 0.0433,-0.657259 0.51411,-1.286346 0.87688,-1.998569 m 4.77014,3.683666 c 0.81782,0 1.63562,0 2.43706,0 0.16349,-2.083731 0.14042,-2.110361 -1.71214,-2.116312 -0.56883,-0.0019 -1.13768,-0.0019 -1.70651,0 -1.85665,0.0062 -2.00738,0.195998 -1.60273,2.116312 0.76288,0 1.54501,0 2.58432,0 z"
         id="path8"
         style="stroke-width:0.264583" />
      <path
         fill="#eb3f57"
         opacity="1"
         stroke="none"
         d="m 154.40018,95.881819 c 0.52642,-0.09976 0.94498,-0.221183 1.36448,-0.224567 2.33061,-0.01884 4.66149,-0.01503 6.99224,-0.0067 1.41256,0.005 2.14211,0.744463 2.14832,2.169189 0.008,1.759043 0.008,3.518159 -1.4e-4,5.277199 -0.006,1.29763 -0.78256,2.06803 -2.10068,2.07345 -2.37469,0.01 -4.7495,0.009 -7.12423,5.3e-4 -1.59622,-0.006 -2.3421,-0.66112 -2.39963,-2.24389 -0.0606,-1.66892 -0.11204,-3.350276 0.0325,-5.008774 0.0602,-0.6911 0.63751,-1.337128 1.08713,-2.036495 m 1.77576,3.656084 c 1.8e-4,0.833445 0.007,1.666965 -0.001,2.500345 -0.008,0.86038 0.39768,1.29185 1.26869,1.2841 0.87726,-0.008 1.75462,-2.6e-4 2.63195,-10e-4 1.92053,-0.002 1.92053,-0.003 1.92141,-1.84782 0.002,-3.985792 0.002,-3.985792 -4.0078,-3.972793 -1.67062,0.0054 -1.78405,0.117412 -1.81305,2.037522 z"
         id="path9"
         style="stroke-width:0.264583" />
      <path
         fill="#eb3f57"
         opacity="1"
         stroke="none"
         d="m 172.05101,99.890892 c -0.16834,-3.926004 0.31602,-4.386345 4.10561,-4.253254 1.75878,0.06176 3.5218,0.0302 5.28235,0.0039 1.17556,-0.01757 2.06672,0.494326 2.11749,1.648124 0.0935,2.126588 -0.006,4.264618 -0.0942,6.395038 -0.0453,1.09317 -0.88731,1.4582 -1.81555,1.47313 -2.59671,0.0418 -5.19561,0.0583 -7.79138,-0.007 -1.0797,-0.0269 -1.76062,-0.69356 -1.79676,-1.82901 -0.035,-1.09947 -0.008,-2.20093 -0.008,-3.431467 m 8.3096,3.179557 c 0.11308,-1.6582 0.25834,-3.315678 0.29522,-4.975565 0.004,-0.190288 -0.58855,-0.545983 -0.91906,-0.564401 -1.22509,-0.06829 -2.45659,-0.04547 -3.68499,-0.02109 -0.7696,0.01527 -1.15739,0.37166 -1.10634,1.224319 0.0655,1.093306 0.0701,2.197027 -0.001,3.289627 -0.0591,0.90835 0.33633,1.29406 1.17464,1.29024 1.35706,-0.006 2.71395,-0.0491 4.24155,-0.24313 z"
         id="path10"
         style="stroke-width:0.264583" />
      <path
         fill="#eb3f57"
         opacity="1"
         stroke="none"
         d="m 142.94723,100.41699 c 0,1.61981 0,3.10828 0,4.67572 -1.07558,0 -2.058,0 -3.10721,0 0,-3.13676 0,-6.233997 0,-9.443451 3.36389,0 6.66106,-0.02988 9.95723,0.01378 1.443,0.01913 1.76677,1.265016 1.82805,2.2893 0.14097,2.356201 0.0447,4.726581 0.0447,7.155341 -0.97624,0 -1.84076,0 -2.90243,0 0,-1.85493 0.003,-3.72746 -8e-4,-5.599962 -0.003,-1.690335 -0.306,-1.999967 -1.9574,-2.006451 -1.2269,-0.0048 -2.45381,-0.0011 -3.86204,-0.0011 0,0.97373 0,1.879513 0,2.916653 z"
         id="path11"
         style="stroke-width:0.264583" />
      <path
         fill="#eb3f57"
         opacity="1"
         stroke="none"
         d="m 95.654932,94.858252 c -0.28352,0.387364 -0.57195,0.770385 -0.57685,1.156989 -0.0378,2.988987 -0.0209,5.978679 -0.0209,9.062829 -1.04728,0 -2.03,0 -3.1531,0 0,-3.3584 0,-6.722396 0,-10.223376 -1.8254,0 -3.51839,0 -5.25948,0 0,-0.739945 0,-1.340988 0,-2.030085 4.61096,0 9.20853,0 13.887528,0 0,0.634455 0,1.264402 0,2.030947 -1.604118,0 -3.177468,0 -4.877238,0.0027 z"
         id="path12"
         style="stroke-width:0.264583" />
      <path
         fill="#eb3f57"
         opacity="1"
         stroke="none"
         d="m 119.92706,95.648169 c 1.31981,5.29e-4 2.50987,-0.03761 3.69406,0.02886 0.30046,0.01688 0.81975,0.35878 0.82682,0.565451 0.0192,0.558292 0.0872,1.283338 -0.88212,1.265098 -1.67123,-0.03144 -3.3435,-0.01027 -5.01532,-0.0066 -1.79352,0.0039 -1.7957,0.008 -1.79733,1.717313 -7.9e-4,0.835909 0.079,1.681159 -0.0181,2.505639 -0.15865,1.3467 0.506,1.64958 1.6749,1.61032 1.58206,-0.0531 3.1702,0.0459 4.75005,-0.0336 1.08257,-0.0545 1.75955,0.29631 2.06555,1.53906 -0.46628,0.11025 -0.93684,0.31273 -1.4097,0.3182 -2.68338,0.0311 -5.36737,0.027 -8.05099,0.01 -1.30058,-0.008 -1.90195,-0.61224 -1.91668,-1.92073 -0.0213,-1.89157 -0.0175,-3.78367 -7.9e-4,-5.675333 0.01,-1.119505 0.82963,-1.905375 1.98826,-1.919692 1.31966,-0.0163 2.63969,-0.0039 4.09149,-0.004 z"
         id="path13"
         style="stroke-width:0.264583" />
      <path
         fill="#eb3f57"
         opacity="1"
         stroke="none"
         d="m 168.14078,91.679435 c 0.6369,-8e-6 1.15303,-8e-6 1.73032,-8e-6 0,4.515889 0,8.905593 0,13.394673 -0.88827,0 -1.78276,0 -2.83912,0 0,-4.40835 0,-8.833122 0,-13.34748 0.22087,-0.01056 0.60447,-0.02886 1.1088,-0.04718 z"
         id="path14"
         style="stroke-width:0.264583" />
      <path
         fill="#eb3f57"
         opacity="1"
         stroke="none"
         d="m 21.238585,99.620244 c -1.22e-4,1.937506 0.03607,3.744806 -0.0312,5.548246 -0.01336,0.35787 -0.423524,0.70093 -0.650711,1.05081 -0.213646,-0.36355 -0.605986,-0.72389 -0.612574,-1.09116 -0.05135,-2.86216 -0.05461,-5.726148 -0.0019,-8.588254 0.0084,-0.457208 0.293605,-0.967592 0.58769,-1.347438 0.427714,-0.552448 0.931394,-1.072682 1.488366,-1.493161 1.353674,-1.02199 1.9221,-2.331421 1.586902,-3.986826 -0.09907,-0.489265 -0.327176,-0.971566 -0.58319,-1.405728 -0.468516,-0.79456 -0.801888,-1.587889 -0.104685,-2.388098 0.62778,-0.720516 2.273361,-0.869765 2.724552,-0.193884 0.53362,0.799354 0.854263,1.776175 -0.08473,2.530078 -0.859486,0.690057 -0.660726,1.592546 -0.587619,2.419369 0.106434,1.203714 -0.205317,2.14349 -1.198046,2.841807 -0.03558,0.02503 -0.06026,0.06558 -0.09589,0.09053 -2.061779,1.443289 -2.888279,3.397911 -2.437003,6.013706 z"
         id="path15"
         style="stroke-width:0.264583" />
      <path
         fill="#eb3f57"
         opacity="1"
         stroke="none"
         d="m 18.857327,105.69934 c -5.29e-4,1.09965 0.05485,2.0728 -0.03211,3.03306 -0.0295,0.32579 -0.41801,0.61907 -0.642461,0.92721 -0.21585,-0.31681 -0.612426,-0.62996 -0.618932,-0.95101 -0.05166,-2.55122 -0.07767,-5.10531 -0.0048,-7.65549 0.02771,-0.97029 -0.234328,-1.668678 -0.974034,-2.275579 -0.575522,-0.472176 -1.09211,-1.024113 -1.590032,-1.580732 -0.505082,-0.56464 -0.984793,-0.905793 -1.854097,-0.795486 -1.031338,0.130836 -1.970085,-0.908407 -1.926212,-1.864849 0.03419,-0.745289 1.159608,-1.737985 1.96156,-1.730233 0.938914,0.0091 1.736074,1.002967 1.71028,2.064078 -0.007,0.289227 0.06118,0.665713 0.245015,0.860291 1.206775,1.277313 3.022409,2.318527 3.543207,3.817596 0.628568,1.809304 0.170423,3.996144 0.182652,6.151144 z"
         id="path16"
         style="stroke-width:0.264583" />
      <path
         fill="#eb3f57"
         opacity="1"
         stroke="none"
         d="m 22.297143,102.53219 c -0.404156,-2.41999 0.383585,-4.169693 2.229641,-5.589995 0.96674,-0.743778 1.914665,-1.547968 1.819741,-3.119215 -0.05659,-0.936731 1.04962,-1.38181 1.921483,-1.302051 1.027557,0.09398 1.565054,0.780944 1.452844,1.927063 -0.10853,1.108491 -0.747946,1.548749 -1.737536,1.734471 -0.409355,0.07682 -0.855188,0.181528 -1.187177,0.413022 -2.590509,1.806327 -3.752548,4.225155 -3.198696,7.421805 0.148214,0.85545 0.08071,1.76406 -0.0041,2.63699 -0.03851,0.39647 -0.360598,0.76541 -0.554048,1.14683 -0.247015,-0.39088 -0.678804,-0.76891 -0.707027,-1.17499 -0.09143,-1.31539 -0.03476,-2.64107 -0.03514,-4.09393 z"
         id="path17"
         style="stroke-width:0.264583" />
      <path
         fill="#eb3f57"
         opacity="1"
         stroke="none"
         d="m 16.843128,92.442194 c -0.695735,-0.690616 -1.275609,-1.362869 -1.94709,-1.925868 -0.797941,-0.669038 -1.231119,-1.41284 -1.095142,-2.494105 0.03618,-0.2877 -0.220903,-0.671656 -0.443942,-0.921674 -0.723275,-0.81081 -0.820745,-1.889767 -0.175802,-2.579258 0.58425,-0.6246 2.03536,-0.722316 2.6255,-0.176808 0.609301,0.563218 0.557577,1.966968 -0.142772,2.711455 -0.774875,0.82369 -0.778417,1.600523 0.03211,2.38674 0.252468,0.244883 0.462544,0.551291 0.751157,0.738254 2.338475,1.514985 2.773452,3.757872 2.384753,6.284735 -0.05637,0.366443 -0.44895,0.681159 -0.685948,1.019818 -0.2037,-0.327983 -0.547127,-0.641361 -0.583245,-0.986867 -0.08645,-0.827064 0.04427,-1.678022 -0.05518,-2.502133 -0.0618,-0.512095 -0.383852,-0.992775 -0.664398,-1.554289 z"
         id="path18"
         style="stroke-width:0.264583" />
      <path
         fill="#eb3f57"
         opacity="1"
         stroke="none"
         d="m 16.314451,113.18869 c -1.20227,0.21426 -2.300608,0.37355 -3.398941,0.53285 -0.08988,-0.16467 -0.179766,-0.32936 -0.269647,-0.49403 0.361918,-0.2875 0.68875,-0.75207 1.091805,-0.83194 1.773669,-0.35139 3.571275,-0.58007 5.356569,-0.87518 2.419551,-0.39994 4.833395,-0.83494 7.25505,-1.2213 0.635365,-0.10134 1.290529,-0.0786 1.936602,-0.1128 0.06949,0.1319 0.138985,0.26382 0.208478,0.39573 -0.334761,0.23407 -0.640609,0.59784 -1.00924,0.68001 -1.673537,0.37307 -3.35925,0.70013 -5.051086,0.98032 -1.999583,0.33115 -4.009956,0.59712 -6.11959,0.94634 z"
         id="path19"
         style="stroke-width:0.264583" />
      <path
         fill="#eb3f57"
         opacity="1"
         stroke="none"
         d="m 15.127128,117.07721 c -0.793965,0.10016 -1.471221,0.19865 -2.166284,0.29972 -0.446524,-0.84639 -0.006,-1.2209 0.65564,-1.33055 3.907028,-0.6474 7.820324,-1.25703 11.731781,-1.87765 0.723257,-0.11475 1.445543,-0.27422 2.172861,-0.30512 0.276598,-0.0117 0.566103,0.28045 0.849726,0.4341 -0.220962,0.21982 -0.414044,0.58918 -0.667192,0.63638 -2.577727,0.48054 -5.164918,0.91051 -7.750135,1.35068 -1.569281,0.26718 -3.139753,0.5274 -4.826397,0.79244 z"
         id="path20"
         style="stroke-width:0.264583" />
      <path
         fill="#eb3f57"
         opacity="1"
         stroke="none"
         d="m 21.751003,121.17938 c -2.483834,0.24099 -3.472944,-0.17986 -3.939693,-1.6614 -0.121407,-0.38534 -0.01828,-0.84142 0.157541,-1.30411 1.093258,0.65333 1.197387,2.33522 2.908599,1.9929 1.62569,-0.32521 1.09406,-2.09127 2.031473,-2.84421 1.135695,1.12483 0.699786,2.55723 -1.15792,3.81682 z"
         id="path21"
         style="stroke-width:0.264583" />
    </g>
  </g>
</svg>
